<?xml version="1.0" encoding="UTF-8"?>
<svg version="1.1" xmlns="http://www.w3.org/2000/svg" width="512" height="512">
<path d="M0 0 C1.50383924 -0.00462319 3.00767393 -0.01098551 4.5114994 -0.01890898 C8.59475912 -0.03543114 12.67763942 -0.02743511 16.76089954 -0.0149641 C21.18362157 -0.00584489 25.60628222 -0.01991711 30.0289917 -0.03088379 C38.67367116 -0.04860085 47.31821111 -0.04485955 55.96289587 -0.03323323 C62.99328086 -0.02417222 70.02362695 -0.0229864 77.05401611 -0.02732849 C78.55918224 -0.02824789 78.55918224 -0.02824789 80.09475577 -0.02918586 C82.13370753 -0.03046486 84.17265929 -0.03176171 86.21161103 -0.03307623 C105.29745445 -0.04446207 124.38322082 -0.03139971 143.4690516 -0.00987476 C159.81908728 0.00799439 176.16900934 0.00488972 192.51904297 -0.0135498 C211.5400676 -0.03499185 230.56102483 -0.04336362 249.58205986 -0.03110075 C251.61319859 -0.02982665 253.64433733 -0.02856917 255.67547607 -0.02732849 C257.17422348 -0.02640284 257.17422348 -0.02640284 258.70324862 -0.02545848 C265.71911346 -0.02201558 272.73493528 -0.027811 279.75079346 -0.0372467 C288.30949646 -0.04850519 296.86805285 -0.0453461 305.42673922 -0.02412373 C309.78728833 -0.01366489 314.14759367 -0.00940245 318.50814056 -0.02272034 C322.51035677 -0.03475828 326.51210636 -0.02789707 330.51428103 -0.00681013 C331.9514892 -0.00239178 333.38873792 -0.00450098 334.82591939 -0.01431328 C348.05411179 -0.09760381 361.03005511 2.19204741 372.98974609 8.07043457 C373.68720947 8.40776611 374.38467285 8.74509766 375.10327148 9.09265137 C393.78230052 18.5457388 407.5530564 34.47199943 416.11474609 53.38293457 C416.39664795 53.99419189 416.6785498 54.60544922 416.96899414 55.23522949 C421.80491497 66.41315219 422.80772767 77.73202052 422.75242615 89.78242493 C422.75660832 91.28367293 422.76209065 92.78491776 422.76874596 94.28615683 C422.7831036 98.37613244 422.77898643 102.46590488 422.77157915 106.55589116 C422.76682557 110.9807051 422.77937663 115.40547645 422.78959656 119.83027649 C422.80674753 128.48536892 422.80763222 137.14038863 422.80238365 145.79549364 C422.79833359 152.83452752 422.79979543 159.87354 422.80513191 166.91257286 C422.80588033 167.91642342 422.80662876 168.92027397 422.80739986 169.95454424 C422.80893142 171.9942206 422.81046977 174.03389696 422.81201483 176.07357331 C422.82572663 195.17941707 422.8203116 214.28521983 422.80882961 233.39106264 C422.7989 250.84555588 422.81183558 268.29994307 422.8357638 285.75441996 C422.86018421 303.70403677 422.86975536 321.65360425 422.86311108 339.60323733 C422.85962522 349.66961831 422.86180895 359.73591778 422.87936211 369.80228615 C422.89412096 378.37203397 422.8946716 386.94164289 422.8772912 395.5113881 C422.86880882 399.87799716 422.86656351 404.24435847 422.88194275 408.61095428 C422.89588303 412.6188333 422.89090842 416.62625451 422.87170351 420.63410767 C422.86797155 422.07342768 422.87078321 423.51278521 422.88131516 424.95207153 C422.9708231 438.13588725 420.89212692 451.24819753 414.48974609 462.94543457 C414.13952393 463.61026855 413.78930176 464.27510254 413.4284668 464.96008301 C412.43178166 466.82445172 411.40789386 468.66924685 410.36474609 470.50793457 C409.88134766 471.36000488 409.39794922 472.2120752 408.89990234 473.08996582 C395.95711269 493.91097526 374.55985506 506.54082141 351.08260471 512.04275864 C348.04354587 512.56290969 345.19327944 512.63711937 342.10947704 512.64215565 C340.84143299 512.64661349 339.57338894 512.65107134 338.26691931 512.65566427 C336.86204349 512.65557498 335.45716767 512.65538514 334.05229187 512.65510559 C332.55795137 512.65840608 331.06361177 512.66213204 329.56927329 512.66624707 C325.46128564 512.67625457 321.35331259 512.67998187 317.24531448 512.68263638 C312.81491913 512.68654327 308.38453532 512.6961215 303.95414734 512.70484924 C293.25231673 512.72460517 282.55048518 512.73467982 271.84864089 512.74357703 C266.80546855 512.7479623 261.76229726 512.75332858 256.71912575 512.7585659 C239.9474074 512.77557907 223.1756897 512.79007157 206.40396404 512.79731464 C202.05226834 512.79922446 197.70057264 512.8011448 193.34887695 512.80310059 C192.26731765 512.80358433 191.18575835 512.80406807 190.07142452 512.80456647 C172.56469849 512.81286048 155.05804093 512.83818638 137.55134477 512.87068126 C119.56583048 512.90379183 101.58035093 512.92176711 83.59480602 512.92495888 C73.50146637 512.92712053 63.40822649 512.93581826 53.31491661 512.96142006 C44.71571059 512.98318189 36.11662858 512.99115067 27.51739814 512.98145328 C23.13463256 512.97692411 18.75212254 512.97871354 14.3693924 512.99821472 C10.34640719 513.01595945 6.32386184 513.01475824 2.30087123 512.99931743 C0.85592185 512.99695833 -0.5890589 513.00117528 -2.03396062 513.01314608 C-15.23895779 513.11565103 -28.3561075 511.04593894 -40.07275391 504.63293457 C-41.07000488 504.10760132 -41.07000488 504.10760132 -42.08740234 503.57165527 C-43.95177106 502.57497014 -45.79656618 501.55108234 -47.63525391 500.50793457 C-48.48732422 500.02453613 -49.33939453 499.5411377 -50.21728516 499.04309082 C-69.86152026 486.83180954 -82.77934604 467.11323051 -88.32148477 444.91513216 C-90.02260947 437.59013423 -90.19437844 430.37033572 -90.14318848 422.87268066 C-90.14781167 421.36884143 -90.15417399 419.86500673 -90.16209745 418.36118126 C-90.17861962 414.27792155 -90.17062359 410.19504125 -90.15815258 406.11178112 C-90.14903336 401.68905909 -90.16310559 397.26639845 -90.17407227 392.84368896 C-90.19178932 384.19900951 -90.18804803 375.55446955 -90.1764217 366.90978479 C-90.1673607 359.87939981 -90.16617487 352.84905371 -90.17051697 345.81866455 C-90.1711299 344.81522046 -90.17174283 343.81177638 -90.17237434 342.7779249 C-90.17365334 340.73897313 -90.17495019 338.70002137 -90.1762647 336.66106963 C-90.18765054 317.57522621 -90.17458819 298.48945984 -90.15306324 279.40362906 C-90.13519408 263.05359338 -90.13829875 246.70367133 -90.15673828 230.3536377 C-90.17818033 211.33261306 -90.18655209 192.31165584 -90.17428923 173.2906208 C-90.17301513 171.25948208 -90.17175765 169.22834334 -90.17051697 167.19720459 C-90.16989987 166.19803965 -90.16928276 165.19887471 -90.16864696 164.16943204 C-90.16520406 157.1535672 -90.17099948 150.13774538 -90.18043518 143.12188721 C-90.19169367 134.56318421 -90.18853457 126.00462781 -90.1673122 117.44594145 C-90.15685336 113.08539234 -90.15259092 108.725087 -90.16590881 104.3645401 C-90.17794676 100.3623239 -90.17108555 96.3605743 -90.14999861 92.35839963 C-90.14558026 90.92119146 -90.14768945 89.48394274 -90.15750176 88.04676127 C-90.2410865 74.77184163 -87.93613631 61.80645765 -82.01025391 49.82043457 C-81.50365234 48.77254761 -81.50365234 48.77254761 -80.98681641 47.70349121 C-77.40437166 40.58970997 -72.84264333 34.50356007 -67.63525391 28.50793457 C-66.66652344 27.38838379 -66.66652344 27.38838379 -65.67822266 26.24621582 C-48.62606218 7.97347965 -24.46071642 -0.16700465 0 0 Z M-43.88525391 51.63293457 C-56.13707505 66.17882098 -57.79112169 83.02144237 -57.76896667 101.33453369 C-57.77083745 102.72721933 -57.77313921 104.11990445 -57.775832 105.51258874 C-57.78192343 109.32089461 -57.78181955 113.12917845 -57.78063762 116.93748808 C-57.78043294 121.05213983 -57.78595878 125.16678462 -57.79069519 129.28143311 C-57.79898768 137.33579836 -57.8017494 145.39015629 -57.80230757 153.44452545 C-57.80278339 159.99406712 -57.80484142 166.54360637 -57.80800819 173.09314728 C-57.81681088 191.67820615 -57.82142816 210.26325925 -57.82067772 228.84832022 C-57.82063776 229.84942069 -57.82059781 230.85052116 -57.82055664 231.88195801 C-57.82051576 232.88428625 -57.82047488 233.88661449 -57.82043276 234.91931632 C-57.82002638 251.16035275 -57.82959489 267.40136598 -57.84369501 283.6423957 C-57.85807165 300.33415822 -57.86496448 317.02590944 -57.86410123 333.71767831 C-57.86376971 343.08256526 -57.86649709 352.4474279 -57.87727928 361.81230927 C-57.88640123 369.78602526 -57.88854563 377.75970591 -57.88176986 385.73342487 C-57.87851323 389.79780747 -57.87841688 393.86212233 -57.88712311 397.92649841 C-57.89502706 401.65484623 -57.89351728 405.38307303 -57.88483898 409.11141804 C-57.88259527 411.08272357 -57.89010192 413.05403296 -57.89807862 415.02532363 C-57.82407862 434.29805607 -53.83351805 450.25037517 -40.61181641 464.72277832 C-26.13480869 478.74233412 -8.03572582 480.66490808 11.19134521 480.64164734 C12.58403085 480.64351811 13.97671597 480.64581988 15.36940026 480.64851266 C19.17770614 480.6546041 22.98598997 480.65450021 26.7942996 480.65331829 C30.90895135 480.65311361 35.02359615 480.65863944 39.13824463 480.66337585 C47.19260988 480.67166834 55.24696781 480.67443006 63.30133697 480.67498823 C69.85087864 480.67546405 76.4004179 480.67752208 82.9499588 480.68068886 C101.53501767 480.68949154 120.12007077 480.69410883 138.70513174 480.69335838 C140.20678245 480.69329845 140.20678245 480.69329845 141.73876953 480.6932373 C142.74109777 480.69319642 143.74342602 480.69315554 144.77612785 480.69311342 C161.01716427 480.69270704 177.25817751 480.70227556 193.49920723 480.71637567 C210.19096975 480.73075231 226.88272097 480.73764515 243.57448983 480.7367819 C252.93937679 480.73645038 262.30423942 480.73917775 271.66912079 480.74995995 C279.64283678 480.75908189 287.61651743 480.76122629 295.5902364 480.75445052 C299.654619 480.75119389 303.71893385 480.75109754 307.78330994 480.75980377 C311.51165776 480.76770773 315.23988455 480.76619794 318.96822956 480.75751964 C320.93953509 480.75527594 322.91084449 480.76278258 324.88213515 480.77075928 C344.1548676 480.69675928 360.10718669 476.70619871 374.57958984 463.48449707 C388.59914564 449.00748936 390.5217196 430.90840649 390.49845886 411.68133545 C390.50032964 410.28864981 390.5026314 408.89596469 390.50532418 407.5032804 C390.51141562 403.69497453 390.51131174 399.88669069 390.51012981 396.07838106 C390.50992513 391.96372931 390.51545097 387.84908452 390.52018738 383.73443604 C390.52847986 375.68007078 390.53124158 367.62571285 390.53179976 359.57134369 C390.53227557 353.02180202 390.5343336 346.47226277 390.53750038 339.92272186 C390.54630306 321.33766299 390.55092035 302.75260989 390.55016991 284.16754892 C390.55012995 283.16644845 390.55009 282.16534798 390.55004883 281.13391113 C390.55000795 280.13158289 390.54996707 279.12925465 390.54992495 278.09655282 C390.54951857 261.85551639 390.55908708 245.61450316 390.57318719 229.37347344 C390.58756384 212.68171092 390.59445667 195.9899597 390.59359342 179.29819083 C390.5932619 169.93330388 390.59598927 160.56844124 390.60677147 151.20355988 C390.61589341 143.22984388 390.61803781 135.25616323 390.61126205 127.28244427 C390.60800541 123.21806167 390.60790907 119.15374681 390.6166153 115.08937073 C390.62451925 111.36102291 390.62300947 107.63279611 390.61433116 103.9044511 C390.61208746 101.93314558 390.61959411 99.96183618 390.62757081 97.99054551 C390.55357081 78.71781307 386.56301024 62.76549397 373.34130859 48.29309082 C358.76687931 34.17919183 340.68822965 32.35085123 321.42462158 32.3742218 C320.03178558 32.37235045 318.6389501 32.37004846 317.24611545 32.36735648 C313.44199952 32.36127222 309.63790568 32.36136807 305.83378601 32.36255085 C301.72185939 32.36275572 297.60993971 32.35722798 293.49801636 32.35249329 C285.45080533 32.34420481 277.40360163 32.34143927 269.35638669 32.34088091 C262.81212163 32.34040491 256.26785897 32.33834599 249.72359467 32.33518028 C231.14950961 32.3263788 212.57543032 32.32176014 194.00134316 32.32251076 C193.00107082 32.32255071 192.00079847 32.32259067 190.97021484 32.32263184 C189.4679642 32.32269316 189.4679642 32.32269316 187.93536505 32.32275572 C171.70800081 32.32316209 155.48065978 32.31359339 139.25330225 32.29949347 C122.57167335 32.28511375 105.89005576 32.27822416 89.20842052 32.27908725 C79.85078243 32.27941865 70.49316868 32.27669621 61.13553619 32.26590919 C53.16809465 32.2567832 45.20068849 32.25464616 37.23324397 32.26141862 C33.17278103 32.26467318 29.11238588 32.26477915 25.05192947 32.25606537 C21.32603647 32.24815219 17.60026447 32.24968042 13.87437424 32.2583495 C11.9068379 32.26058936 9.93929766 32.25309388 7.97177625 32.24510986 C-12.47195135 32.32351607 -29.31278488 36.55603392 -43.88525391 51.63293457 Z " fill="#000000" transform="translate(89.63525390625,-0.5079345703125)"/>
<path d="M0 0 C6.83758057 5.57396198 12.57997102 12.03914611 15.8125 20.3125 C16.16828125 21.19164063 16.5240625 22.07078125 16.890625 22.9765625 C20.20756993 34.97940558 18.35708756 47.90017835 12.52734375 58.69140625 C6.36799024 68.83117763 -2.67497541 75.59183463 -14.08251953 78.85449219 C-25.58564167 81.35737518 -38.68155233 80.10999082 -48.6015625 73.76953125 C-59.28319096 65.96372584 -66.77266138 55.90032125 -68.90625 42.66796875 C-70.37471349 30.36958705 -67.27882244 19.4076534 -60.1875 9.3125 C-59.61 8.425625 -59.0325 7.53875 -58.4375 6.625 C-43.23923552 -8.99543849 -18.23529179 -12.74700008 0 0 Z " fill="#000000" transform="translate(158.1875,96.6875)"/>
<path d="M0 0 C0.82999512 0.00757324 1.65999023 0.01514648 2.51513672 0.02294922 C15.09226838 0.35942003 25.22444247 5.57021081 33.875 14.625 C43.64009025 26.12480689 44.73134024 38.99636045 43.625 53.4375 C41.45521966 64.74388551 33.77580184 73.78990663 24.625 80.4375 C13.95098939 87.14433666 2.96085254 88.47336808 -9.375 86.4375 C-20.9088034 83.70251952 -30.5269456 77.07302112 -36.94140625 67.08984375 C-43.55694942 54.85018758 -44.73752341 43.07044301 -41.41015625 29.68359375 C-37.99921788 18.98740589 -30.28442622 10.08062958 -20.54394531 4.54980469 C-13.87236239 1.12840309 -7.45002623 -0.09604085 0 0 Z " fill="#000000" transform="translate(132.375,335.5625)"/>
<path d="M0 0 C10.68162846 7.80580541 18.17109888 17.86921 20.3046875 31.1015625 C21.77315099 43.3999442 18.67725994 54.36187785 11.5859375 64.45703125 C11.0084375 65.34390625 10.4309375 66.23078125 9.8359375 67.14453125 C0.75548035 76.47722332 -10.34321013 80.89134265 -23.22265625 81.484375 C-35.12027515 81.38243702 -45.65846139 77.39072335 -54.3515625 69.14453125 C-58.21665201 64.97890133 -61.127855 60.65523297 -63.4140625 55.45703125 C-63.67227783 54.885896 -63.93049316 54.31476074 -64.1965332 53.72631836 C-66.39795476 48.47124887 -66.92386341 43.8126927 -66.8515625 38.14453125 C-66.84398926 37.31002441 -66.83641602 36.47551758 -66.82861328 35.61572266 C-66.49333749 23.0147368 -61.30130117 12.87664766 -52.2265625 4.20703125 C-38.18679721 -7.71487114 -15.66646693 -10.0133567 0 0 Z " fill="#000000" transform="translate(402.4140625,341.54296875)"/>
<path d="M0 0 C10.0415886 9.30829823 14.45823595 20.1928223 15.55859375 33.6171875 C15.08756161 47.33253496 9.67774184 58.43884388 -0.22265625 67.76171875 C-9.76638194 75.46444797 -20.87624262 78.32937211 -33.05859375 77.609375 C-45.76435446 75.8312151 -55.90872398 69.87568201 -64.1484375 60.08984375 C-71.78510879 49.22012914 -72.76240479 37.67572055 -71.75390625 24.8046875 C-69.5670097 12.88214907 -62.41480437 3.8483605 -52.75390625 -3.1953125 C-36.41205997 -13.78101017 -15.06565271 -12.00978273 0 0 Z " fill="#000000" transform="translate(407.75390625,222.1953125)"/>
<path d="M0 0 C4.67873202 4.42900378 7.94252918 9.03077791 10.75 14.8125 C11.08902344 15.4725 11.42804688 16.1325 11.77734375 16.8125 C15.61237776 25.8610595 15.22410792 38.68141206 12.125 47.875 C6.95878883 59.64748121 -1.19517099 68.91279531 -13.25 73.8125 C-14.1575 74.204375 -15.065 74.59625 -16 75 C-28.70689134 78.17672283 -40.8218989 76.94729562 -52.359375 70.6953125 C-62.96815113 63.78527183 -69.85668212 53.92512507 -72.625 41.5625 C-74.42965162 29.82296211 -72.67738437 18.19060973 -66.03125 8.15625 C-58.5620543 -1.67163908 -49.70512448 -8.05437274 -37.5 -10.6875 C-23.32650466 -12.4917376 -10.90518187 -9.157764 0 0 Z " fill="#000000" transform="translate(162.25,223.1875)"/>
<path d="M0 0 C9.51748724 8.57017902 13.88023857 20.26312622 14.76171875 32.82421875 C14.52482746 45.21363345 10.09936646 55.60513673 1.69921875 64.57421875 C-2.27420123 68.32815458 -6.50797613 71.03161377 -11.48828125 73.26171875 C-12.0608667 73.52138428 -12.63345215 73.7810498 -13.22338867 74.04858398 C-18.47559314 76.24804661 -23.13617106 76.77147436 -28.80078125 76.69921875 C-29.63528809 76.69164551 -30.46979492 76.68407227 -31.32958984 76.67626953 C-43.9305757 76.34099374 -54.06866484 71.14895742 -62.73828125 62.07421875 C-72.00284194 51.16385785 -73.3528846 39.32638556 -72.71484375 25.59521484 C-71.6296868 14.41856601 -64.0508292 4.82070073 -55.6796875 -2.13671875 C-38.40740894 -14.75995264 -16.55323932 -12.77503919 0 0 Z " fill="#000000" transform="translate(408.48828125,99.73828125)"/>
</svg>
