<?xml version="1.0" encoding="UTF-8"?>
<svg version="1.1" xmlns="http://www.w3.org/2000/svg" width="512" height="512">
<path d="M0 0 C1.62697888 -0.0034625 3.25395541 -0.00823103 4.88092709 -0.01418173 C9.32293232 -0.02664002 13.76474279 -0.02054505 18.20674849 -0.01122308 C23.00846101 -0.00441162 27.81014096 -0.01492418 32.61184692 -0.02316284 C42.00702567 -0.03648004 51.40213239 -0.03363141 60.79731393 -0.02492492 C68.43518428 -0.01814085 76.07303448 -0.01723478 83.71090698 -0.02049637 C84.79930876 -0.02095607 85.88771053 -0.02141577 87.00909418 -0.0218894 C89.220385 -0.0228486 91.43167582 -0.02382124 93.64296663 -0.02480717 C114.36249217 -0.03335517 135.08197786 -0.02353619 155.80149686 -0.00740607 C173.56731018 0.00599657 191.33306469 0.00366831 209.09887695 -0.01016235 C229.74590428 -0.02622858 250.39289669 -0.03253125 271.03992939 -0.02332556 C273.24293835 -0.02236995 275.44594732 -0.02142683 277.6489563 -0.02049637 C278.73278735 -0.02003354 279.81661839 -0.01957072 280.93329281 -0.01909386 C288.55912392 -0.01650711 296.18493283 -0.02086819 303.8107605 -0.02793503 C313.10819228 -0.03636181 322.4055481 -0.03404511 331.70297122 -0.0180928 C336.44370753 -0.01022596 341.18431736 -0.00709137 345.92505264 -0.01704025 C350.27008306 -0.02602059 354.61487047 -0.02099962 358.95987904 -0.0051076 C360.52634287 -0.00177388 362.09282749 -0.00342189 363.6592778 -0.01073496 C375.82927787 -0.06316505 386.83597657 1.33924681 397.74243164 7.00595093 C398.75575562 7.5264502 398.75575562 7.5264502 399.78955078 8.0574646 C413.27273419 15.23087068 423.11182096 25.80138961 430.05493164 39.31845093 C430.37679443 39.93792603 430.69865723 40.55740112 431.03027344 41.19564819 C436.4211459 52.2924904 437.11750968 63.57156606 437.06088257 75.70101929 C437.06434507 77.32799817 437.06911359 78.95497469 437.0750643 80.58194637 C437.08752259 85.02395161 437.08142762 89.46576208 437.07210565 93.90776777 C437.06529419 98.70948029 437.07580675 103.51116024 437.08404541 108.31286621 C437.09736261 117.70804496 437.09451398 127.10315168 437.08580749 136.49833322 C437.07902342 144.13620356 437.07811735 151.77405377 437.08137894 159.41192627 C437.08183864 160.50032804 437.08229833 161.58872982 437.08277196 162.71011347 C437.08373117 164.92140429 437.08470381 167.1326951 437.08568974 169.34398592 C437.09423774 190.06351146 437.08441876 210.78299714 437.06828864 231.50251615 C437.054886 249.26832947 437.05721426 267.03408398 437.07104492 284.79989624 C437.08711115 305.44692356 437.09341382 326.09391598 437.08420813 346.74094868 C437.08325252 348.94395764 437.0823094 351.14696661 437.08137894 353.34997559 C437.08091611 354.43380663 437.08045328 355.51763768 437.07997643 356.63431209 C437.07738968 364.26014321 437.08175076 371.88595211 437.0888176 379.51177979 C437.09724438 388.80921157 437.09492768 398.10656739 437.07897536 407.40399051 C437.07110853 412.14472682 437.06797394 416.88533664 437.07792282 421.62607193 C437.08690316 425.97110235 437.08188219 430.31588976 437.06599016 434.66089833 C437.06265645 436.22736216 437.06430446 437.79384678 437.07161753 439.36029708 C437.12404762 451.53029716 435.72163576 462.53699586 430.05493164 473.44345093 C429.53443237 474.4567749 429.53443237 474.4567749 429.00341797 475.49057007 C421.83001189 488.97375348 411.25949296 498.81284024 397.74243164 505.75595093 C397.12295654 506.07781372 396.50348145 506.39967651 395.86523438 506.73129272 C384.76839217 512.12216519 373.48931651 512.81852897 361.35986328 512.76190186 C359.7328844 512.76536436 358.10590788 512.77013288 356.4789362 512.77608359 C352.03693096 512.78854187 347.59512049 512.7824469 343.1531148 512.77312493 C338.35140228 512.76631348 333.54972232 512.77682604 328.74801636 512.7850647 C319.35283761 512.7983819 309.95773089 512.79553327 300.56254935 512.78682677 C292.924679 512.78004271 285.2868288 512.77913664 277.6489563 512.78239822 C276.56055452 512.78285792 275.47215275 512.78331762 274.3507691 512.78379125 C272.13947828 512.78475046 269.92818746 512.7857231 267.71689665 512.78670903 C246.99737111 512.79525702 226.27788543 512.78543804 205.55836642 512.76930793 C187.7925531 512.75590529 170.02679859 512.75823355 152.26098633 512.77206421 C131.613959 512.78813044 110.96696659 512.79443311 90.31993389 512.78522742 C88.11692493 512.7842718 85.91391596 512.78332869 83.71090698 512.78239822 C82.62707594 512.7819354 81.54324489 512.78147257 80.42657048 512.78099572 C72.80073936 512.77840896 65.17493046 512.78277005 57.54910278 512.78983688 C48.251671 512.79826366 38.95431518 512.79594696 29.65689206 512.77999465 C24.91615575 512.77212782 20.17554593 512.76899322 15.43481064 512.77894211 C11.08978022 512.78792244 6.74499281 512.78290148 2.39998424 512.76700945 C0.83352041 512.76367574 -0.73296421 512.76532374 -2.29941452 512.77263682 C-14.46941459 512.82506691 -25.47611329 511.42265505 -36.38256836 505.75595093 C-37.05811768 505.40895142 -37.73366699 505.0619519 -38.4296875 504.70443726 C-51.91287091 497.53103118 -61.75195768 486.96051224 -68.69506836 473.44345093 C-69.01693115 472.82397583 -69.33879395 472.20450073 -69.67041016 471.56625366 C-75.06128262 460.46941146 -75.7576464 449.1903358 -75.70101929 437.06088257 C-75.70448179 435.43390369 -75.70925031 433.80692716 -75.71520102 432.17995548 C-75.7276593 427.73795025 -75.72156434 423.29613978 -75.71224236 418.85413408 C-75.70543091 414.05242156 -75.71594347 409.25074161 -75.72418213 404.44903564 C-75.73749933 395.05385689 -75.7346507 385.65875018 -75.72594421 376.26356864 C-75.71916014 368.62569829 -75.71825407 360.98784808 -75.72151566 353.34997559 C-75.72197535 352.26157381 -75.72243505 351.17317204 -75.72290868 350.05178839 C-75.72386789 347.84049757 -75.72484053 345.62920675 -75.72582646 343.41791594 C-75.73437446 322.69839039 -75.72455548 301.97890471 -75.70842536 281.2593857 C-75.69502272 263.49357238 -75.69735098 245.72781788 -75.71118164 227.96200562 C-75.72724787 207.31497829 -75.73355054 186.66798588 -75.72434485 166.02095318 C-75.72338923 163.81794421 -75.72244612 161.61493524 -75.72151566 159.41192627 C-75.72105283 158.32809522 -75.72059 157.24426417 -75.72011315 156.12758976 C-75.7175264 148.50175865 -75.72188748 140.87594974 -75.72895432 133.25012207 C-75.7373811 123.95269029 -75.73506439 114.65533446 -75.71911208 105.35791135 C-75.71124525 100.61717503 -75.70811066 95.87656521 -75.71805954 91.13582993 C-75.72703988 86.79079951 -75.72201891 82.4460121 -75.70612688 78.10100353 C-75.70279317 76.5345397 -75.70444118 74.96805508 -75.71175425 73.40160477 C-75.76418434 61.2316047 -74.36177248 50.224906 -68.69506836 39.31845093 C-68.34806885 38.64290161 -68.00106934 37.96735229 -67.64355469 37.27133179 C-60.47014861 23.78814838 -49.89962967 13.94906161 -36.38256836 7.00595093 C-35.45335571 6.52315674 -35.45335571 6.52315674 -34.50537109 6.03060913 C-23.40852889 0.63973667 -12.12945323 -0.05662711 0 0 Z M-36.19506836 43.39657593 C-45.30169408 54.96199059 -46.6197204 66.44959225 -46.5874939 80.75770569 C-46.59123323 82.33102108 -46.59583589 83.90433461 -46.60122454 85.47764522 C-46.61343503 89.78989505 -46.61319637 94.10206719 -46.61083579 98.41433036 C-46.61042713 103.0695724 -46.62147153 107.72478968 -46.63095093 112.38002014 C-46.64755146 121.49666007 -46.65306006 130.61327414 -46.65417568 139.72992792 C-46.65512666 147.14238725 -46.65923941 154.55483806 -46.66557693 161.96729469 C-46.68318717 182.99311606 -46.69241621 204.01891703 -46.69091599 225.04474583 C-46.69083607 226.17783951 -46.69075616 227.31093319 -46.69067383 228.47836304 C-46.69059207 229.61284383 -46.69051031 230.74732463 -46.69042607 231.91618363 C-46.68961335 250.29772915 -46.70874808 268.67919269 -46.73695056 287.06071451 C-46.76569477 305.94467362 -46.77948999 324.82859277 -46.77776301 343.7125743 C-46.77709961 354.31046467 -46.78256974 364.90826912 -46.80411911 375.50613976 C-46.82235116 384.53026426 -46.82666164 393.55426388 -46.81310026 402.57839885 C-46.80658071 407.17953282 -46.80641673 411.78042735 -46.82380676 416.38153839 C-46.83958753 420.60039304 -46.83662314 424.81881939 -46.8192385 429.03766391 C-46.81617956 430.55716345 -46.81975894 432.07669534 -46.83095865 433.59615668 C-46.9314332 448.20464943 -44.29884639 460.30960595 -34.32006836 471.38095093 C-22.77988794 482.11600248 -10.09863669 483.68251116 5.0566864 483.64837646 C6.63000179 483.6521158 8.20331533 483.65671845 9.77662593 483.66210711 C14.08887577 483.6743176 18.40104791 483.67407894 22.71331108 483.67171836 C27.36855311 483.6713097 32.0237704 483.6823541 36.67900085 483.6918335 C45.79564079 483.70843403 54.91225485 483.71394263 64.02890863 483.71505825 C71.44136796 483.71600922 78.85381877 483.72012198 86.26627541 483.7264595 C107.29209677 483.74406974 128.31789774 483.75329878 149.34372654 483.75179856 C150.47682022 483.75171864 151.6099139 483.75163873 152.77734375 483.7515564 C153.91182455 483.75147464 155.04630534 483.75139287 156.21516434 483.75130863 C174.59670986 483.75049591 192.97817341 483.76963065 211.35969522 483.79783313 C230.24365433 483.82657734 249.12757348 483.84037256 268.01155502 483.83864558 C278.60944539 483.83798218 289.20724983 483.84345231 299.80512047 483.86500168 C308.82924497 483.88323373 317.85324459 483.88754421 326.87737956 483.87398283 C331.47851353 483.86746327 336.07940807 483.8672993 340.6805191 483.88468933 C344.89937375 483.9004701 349.11780011 483.89750571 353.33664463 483.88012107 C354.85614416 483.87706213 356.37567606 483.88064151 357.89513739 483.89184122 C372.50363014 483.99231577 384.60858667 481.35972896 395.67993164 471.38095093 C406.4149832 459.84077051 407.98149187 447.15951926 407.94735718 432.00419617 C407.95109651 430.43088078 407.95569917 428.85756724 407.96108782 427.28425664 C407.97329831 422.9720068 407.97305966 418.65983466 407.97069907 414.34757149 C407.97029041 409.69232946 407.98133481 405.03711217 407.99081421 400.38188171 C408.00741475 391.26524178 408.01292334 382.14862772 408.01403897 373.03197394 C408.01498994 365.61951461 408.0191027 358.2070638 408.02544022 350.79460716 C408.04305045 329.76878579 408.05227949 308.74298483 408.05077927 287.71715603 C408.05069936 286.58406235 408.05061944 285.45096867 408.05053711 284.28353882 C408.05041447 282.58181763 408.05041447 282.58181763 408.05028935 280.84571823 C408.04947663 262.46417271 408.06861136 244.08270916 408.09681384 225.70118735 C408.12555805 206.81722824 408.13935327 187.93330909 408.13762629 169.04932755 C408.1369629 158.45143718 408.14243302 147.85363274 408.16398239 137.2557621 C408.18221444 128.2316376 408.18652492 119.20763798 408.17296354 110.18350301 C408.16644399 105.58236904 408.16628001 100.9814745 408.18367004 96.38036346 C408.19945081 92.16150882 408.19648642 87.94308246 408.17910178 83.72423794 C408.17604284 82.20473841 408.17962222 80.68520651 408.19082193 79.16574518 C408.29129648 64.55725243 405.65870968 52.4522959 395.67993164 41.38095093 C384.13975122 30.64589937 371.45849997 29.0793907 356.30317688 29.11352539 C354.72986149 29.10978605 353.15654796 29.1051834 351.58323735 29.09979475 C347.27098751 29.08758426 342.95881538 29.08782291 338.64655221 29.0901835 C333.99131017 29.09059216 329.33609289 29.07954775 324.68086243 29.07006836 C315.5642225 29.05346782 306.44760843 29.04795923 297.33095465 29.0468436 C289.91849532 29.04589263 282.50604451 29.04177987 275.09358788 29.03544235 C254.06776651 29.01783212 233.04196554 29.00860308 212.01613674 29.0101033 C210.88304306 29.01018321 209.74994938 29.01026313 208.58251953 29.01034546 C206.88079834 29.0104681 206.88079834 29.0104681 205.14469894 29.01059322 C186.76315342 29.01140594 168.38168988 28.9922712 150.00016806 28.96406873 C131.11620895 28.93532452 112.2322898 28.9215293 93.34830827 28.92325628 C82.75041789 28.92391967 72.15261345 28.91844955 61.55474281 28.89690018 C52.53061831 28.87866813 43.50661869 28.87435765 34.48248372 28.88791902 C29.88134975 28.89443858 25.28045521 28.89460255 20.67934418 28.87721252 C16.46048953 28.86143176 12.24206317 28.86439614 8.02321865 28.88178079 C6.50371912 28.88483972 4.98418722 28.88126035 3.46472589 28.87006064 C-11.94697687 28.76406175 -25.35470422 31.74318448 -36.19506836 43.39657593 Z " fill="#000000" transform="translate(75.320068359375,-0.380950927734375)"/>
<path d="M0 0 C9.01643625 7.03880521 15.1108423 16.14007339 17.25 27.4375 C18.57745953 41.22372037 16.25002545 52.78115963 7.57421875 63.89453125 C-0.86877257 73.13215705 -11.15283274 78.33023854 -23.68408203 78.90625 C-36.67374665 79.10273748 -47.12290409 75.23645862 -56.75 66.4375 C-65.54895862 56.81040409 -69.41523748 46.36124665 -69.21875 33.37158203 C-68.64273854 20.84033274 -63.44465705 10.55627257 -54.20703125 2.11328125 C-38.00161747 -10.53769834 -17.12245062 -11.43845467 0 0 Z " fill="#000000" transform="translate(409.75,348.5625)"/>
<path d="M0 0 C9.01643625 7.03880521 15.1108423 16.14007339 17.25 27.4375 C18.57745953 41.22372037 16.25002545 52.78115963 7.57421875 63.89453125 C-0.86877257 73.13215705 -11.15283274 78.33023854 -23.68408203 78.90625 C-36.67374665 79.10273748 -47.12290409 75.23645862 -56.75 66.4375 C-65.54895862 56.81040409 -69.41523748 46.36124665 -69.21875 33.37158203 C-68.64273854 20.84033274 -63.44465705 10.55627257 -54.20703125 2.11328125 C-38.00161747 -10.53769834 -17.12245062 -11.43845467 0 0 Z " fill="#000000" transform="translate(153.75,348.5625)"/>
<path d="M0 0 C9.01643625 7.03880521 15.1108423 16.14007339 17.25 27.4375 C18.57745953 41.22372037 16.25002545 52.78115963 7.57421875 63.89453125 C-0.86877257 73.13215705 -11.15283274 78.33023854 -23.68408203 78.90625 C-36.67374665 79.10273748 -47.12290409 75.23645862 -56.75 66.4375 C-65.54895862 56.81040409 -69.41523748 46.36124665 -69.21875 33.37158203 C-68.64273854 20.84033274 -63.44465705 10.55627257 -54.20703125 2.11328125 C-38.00161747 -10.53769834 -17.12245062 -11.43845467 0 0 Z " fill="#000000" transform="translate(281.75,220.5625)"/>
<path d="M0 0 C9.01643625 7.03880521 15.1108423 16.14007339 17.25 27.4375 C18.57745953 41.22372037 16.25002545 52.78115963 7.57421875 63.89453125 C-0.86877257 73.13215705 -11.15283274 78.33023854 -23.68408203 78.90625 C-36.67374665 79.10273748 -47.12290409 75.23645862 -56.75 66.4375 C-65.54895862 56.81040409 -69.41523748 46.36124665 -69.21875 33.37158203 C-68.64273854 20.84033274 -63.44465705 10.55627257 -54.20703125 2.11328125 C-38.00161747 -10.53769834 -17.12245062 -11.43845467 0 0 Z " fill="#000000" transform="translate(409.75,92.5625)"/>
<path d="M0 0 C9.01643625 7.03880521 15.1108423 16.14007339 17.25 27.4375 C18.57745953 41.22372037 16.25002545 52.78115963 7.57421875 63.89453125 C-0.86877257 73.13215705 -11.15283274 78.33023854 -23.68408203 78.90625 C-36.67374665 79.10273748 -47.12290409 75.23645862 -56.75 66.4375 C-65.54895862 56.81040409 -69.41523748 46.36124665 -69.21875 33.37158203 C-68.64273854 20.84033274 -63.44465705 10.55627257 -54.20703125 2.11328125 C-38.00161747 -10.53769834 -17.12245062 -11.43845467 0 0 Z " fill="#000000" transform="translate(153.75,92.5625)"/>
</svg>
